<svg width="650" height="515" viewBox="0 0 650 515" fill="none" xmlns="http://www.w3.org/2000/svg">
<ellipse cx="142" cy="242.5" rx="125" ry="121.5" fill="#FFD1CA"/>
<ellipse cx="311" cy="189.5" rx="125" ry="121.5" fill="#FFD1CA"/>
<ellipse cx="474" cy="121.5" rx="125" ry="121.5" fill="#FFD1CA"/>
<ellipse cx="493" cy="331.5" rx="125" ry="121.5" fill="#FFD1CA"/>
<ellipse cx="338" cy="393.5" rx="125" ry="121.5" fill="#FFD1CA"/>
<ellipse cx="125" cy="393.5" rx="125" ry="121.5" fill="#FE563B" fill-opacity="0.27"/>
<ellipse cx="155" cy="363.5" rx="125" ry="121.5" fill="#FFD1CA"/>
<ellipse cx="556.5" cy="243.5" rx="93.5" ry="87.5" fill="#FFD1CA"/>
<path d="M409.844 121.378L404.232 161.944C404.168 162.402 404.483 162.825 404.939 162.897L447.613 169.622C448.129 169.703 448.594 169.303 448.593 168.782L448.396 110.75C448.394 110.187 447.853 109.782 447.312 109.94L410.446 120.681C410.126 120.775 409.89 121.048 409.844 121.378Z" stroke="black" stroke-width="2.11801"/>
<path d="M452.832 112.802L448.172 108.989L447.749 170.624L457.492 168.717L452.832 112.802Z" fill="black"/>
<path d="M452.832 113.861H458.505C458.922 113.861 459.277 114.164 459.342 114.576L467.507 166.495C467.587 167.002 467.2 167.463 466.686 167.473L456.995 167.658" stroke="black" stroke-width="2.11801" stroke-linecap="round"/>
<path d="M428.263 115.132C429.139 111.147 432.449 103.378 438.678 104.175C442.015 104.602 443.936 108.458 443.936 110.351" stroke="black" stroke-width="2.11801" stroke-linecap="round"/>
<path d="M419.791 117.673C420.766 112.894 424.614 102.501 431.799 102.013C436.845 101.671 438.56 108.101 437.854 112.371" stroke="black" stroke-width="2.11801" stroke-linecap="round"/>
<path d="M267.718 353.196L275.342 354.271V372.15C275.342 372.422 275.089 372.624 274.824 372.562L268.046 370.999C267.854 370.954 267.718 370.783 267.718 370.586V353.196Z" fill="black"/>
<path d="M287.05 348.96L260.728 351.502L291.598 356.585L318.82 354.043L287.05 348.96Z" fill="black"/>
<path d="M253.315 351.15L292.123 357.028M253.315 351.15V406.337C253.315 406.43 253.376 406.512 253.465 406.54L292.123 418.431M253.315 351.15L285.721 349.172M292.123 357.028L330.204 353.849C330.319 353.839 330.42 353.923 330.433 354.038L336.11 407.867C336.121 407.973 336.052 408.071 335.948 408.096L292.123 418.431M292.123 357.028V418.431" stroke="black" stroke-width="2.11801" stroke-linecap="round"/>
<path d="M333.787 438.98C329.381 444.741 344.8 451.688 353.272 449.782C343.953 444.698 344.871 440.674 345.224 438.98C343.247 436.579 338.192 433.219 333.787 438.98Z" fill="black"/>
<path d="M348.207 429.094C346.285 433.415 343.595 442.797 348.207 445.76C353.972 449.463 355.894 451.315 362.619 450.389C369.345 449.463 371.267 448.537 367.423 445.76C363.58 442.982 359.855 438.437 360.816 427.327" stroke="black" stroke-width="2.11801" stroke-linecap="round"/>
<path d="M342.57 419.499C333.588 402.334 333.164 375.435 330.42 353.359C305.483 354.842 290.007 353.49 282.255 345.867C271.588 335.378 274.409 323.886 274.409 313.672C284.132 320.489 280.941 311.683 320.244 311.683C356.912 313.717 367.515 367.175 368.232 393.65C368.979 405.137 367.869 415.497 362.667 419.499C352.217 427.538 344.893 423.938 342.57 419.499Z" fill="black"/>
<path d="M316.791 244.532C327.107 225.329 319.175 217.15 314.322 213.457C314.895 227.999 305.223 235.811 300.093 237.808V242.461C301.001 241.282 312.231 241.966 316.791 244.532Z" fill="black"/>
<path d="M251.386 237.454C258.263 243.91 264.16 243.819 266.845 244.118C276.797 244.118 281.185 243.121 284.897 241.792L282.535 234.815C277.569 231.27 274.574 225.561 273.422 222.854C272.128 223.935 270.308 224.138 269.372 222.854C268.62 222.145 267.061 219.511 267.347 215.544C267.632 211.578 270.046 212.022 271.468 213.051L278.57 213.807C278.272 207.249 282.363 205.06 284.446 204.786C282.809 201.153 285.737 199.564 287.278 198.939C289.488 201.616 292.384 202.694 293.609 203.195C306.074 206.418 313.683 202.006 317.195 196.5C321.007 190.942 320.39 177.891 309.605 174.714C306.079 173.373 297.718 172.273 292.488 178.603C277.093 173.012 269.807 189.012 267.808 194.821L265.498 200.118C245.435 204.335 243.67 223.085 247.194 231.296C248.792 235.019 249.002 235.216 251.28 237.354L251.386 237.454Z" fill="black"/>
<path d="M278.085 214.145C278.926 218.85 283.049 221.939 287.17 221.228C291.291 220.516 294.096 216.231 293.255 211.526C292.414 206.82 288.291 203.732 284.17 204.443C280.049 205.155 277.244 209.439 278.085 214.145Z" stroke="black" stroke-width="2.11801"/>
<path d="M300.218 214.145C300.923 218.851 304.377 221.939 307.83 221.228C311.283 220.516 313.633 216.231 312.928 211.526C312.224 206.82 308.769 203.732 305.316 204.443C301.864 205.155 299.514 209.439 300.218 214.145Z" stroke="black" stroke-width="2.11801"/>
<path d="M299.257 212.628L293.404 213.457" stroke="black" stroke-width="2.11801" stroke-linecap="round"/>
<path d="M299.257 231.273C297.965 233.26 294.735 234.717 292.15 231.273" stroke="black" stroke-width="2.11801" stroke-linecap="round"/>
<path d="M296.749 219.672C298.534 223.514 299.104 225.435 297.394 226.716" stroke="black" stroke-width="2.11801" stroke-linecap="round"/>
<path d="M309.144 219.46C307.882 219.679 306.68 218.844 306.458 217.594C306.236 216.343 307.079 215.152 308.341 214.932C309.603 214.712 310.805 215.548 311.027 216.798C311.248 218.048 310.405 219.24 309.144 219.46Z" fill="black"/>
<path d="M289.778 220.031C288.517 220.25 287.315 219.415 287.093 218.164C286.871 216.914 287.714 215.722 288.976 215.503C290.237 215.283 291.44 216.119 291.661 217.369C291.883 218.619 291.04 219.811 289.778 220.031Z" fill="black"/>
<path d="M270.717 217.54C270.941 217.839 271.456 218.53 271.731 218.898" stroke="black" stroke-width="2.11801" stroke-linecap="round"/>
<path d="M310.557 201.855C315.976 213.215 316.565 222.467 305.264 234.054C293.963 245.64 281.848 234.774 277.203 227.892L274.174 223.431" stroke="black" stroke-width="2.11801" stroke-linecap="round"/>
<path d="M277.475 212.852L272.472 213.02" stroke="black" stroke-width="2.11801" stroke-linecap="round"/>
<path d="M331.871 271.05C335.706 275.44 340.264 291.707 328.521 302.954" stroke="black" stroke-width="2.11801" stroke-linecap="round"/>
<path d="M325.386 257.584C325.386 245.982 310.072 241.49 300.273 243.191C297.427 245.297 290.164 248.246 283.881 243.191C278.986 243.746 268.376 246.32 265.097 252.174C256.787 265.813 252.462 301.738 278.758 311.385" stroke="black" stroke-width="2.11801" stroke-linecap="round"/>
<path d="M279.19 271.05C282.543 276.24 283.689 284.052 283.401 288.99C283.391 289.159 283.586 289.265 283.721 289.165C291.317 283.558 308.639 284.61 312.681 287.519C315.966 289.883 313.573 293.099 311.633 295.152C306.287 300.806 298.098 306.287 292.777 308.755" stroke="black" stroke-width="2.11801" stroke-linecap="round"/>
<path d="M333.414 262.496C336.223 264.181 334.058 271.997 332.888 275.128L331.869 274.774L332.154 273.548L332.059 272.322C331.533 271.026 328.494 270.054 326.739 272.322C325.023 274.538 322.843 276.437 321.654 276.909C317.02 279.371 317.851 275.344 318.846 273.023C319.431 271.943 321.093 268.262 321.654 264.764C322.216 261.266 324.638 260.877 326.042 260.715C327.329 260.607 330.606 260.812 333.414 262.496Z" fill="black"/>
<path d="M325.177 258.241C326.223 258.088 327.488 258.399 328.229 259.684C328.389 259.962 328.493 260.294 328.521 260.691" stroke="black" stroke-width="2.11801" stroke-linecap="round"/>
<path d="M320.049 272.293C319.013 271.591 318.541 270.539 317.653 268.747C316.766 266.328 316.252 264.925 315.701 262.901C315.582 262.251 315.159 260.487 316.766 260.303C318.186 260.141 318.363 261.277 318.541 262.089C319.073 264.925 321.43 264.418 321.43 262.469C321.43 260.52 321.43 258.96 320.828 256.623C320.511 255.392 319.702 252.819 322.613 252.819C324.704 252.819 324.869 254.717 325.177 257.965" stroke="black" stroke-width="2.11801" stroke-linecap="round"/>
<path d="M331.866 283.066C326.98 291.13 323.098 288.978 316.816 293.01" stroke="black" stroke-width="2.11801" stroke-linecap="round"/>
<path d="M310.545 283.894C311.124 280.814 314.018 278.908 315.32 273.335C315.768 271.421 316.333 269.669 318.07 269.815" stroke="black" stroke-width="2.11801" stroke-linecap="round"/>
<path d="M377.431 405.53C379.121 411.267 384.124 422.359 390.615 420.829C397.106 419.299 406.842 413.817 410.899 411.267C414.956 408.08 417.998 402.47 397.715 405.53C396.362 405.53 393.658 404.382 393.658 399.793" stroke="black" stroke-width="2.11801" stroke-linecap="round"/>
<path d="M257.905 335.87C248.952 338.297 239.254 352.386 235.524 359.127C241.119 358.453 253.801 354.88 259.77 345.982C265.738 337.084 261.013 335.533 257.905 335.87Z" fill="black"/>
<path d="M253.856 312.172C244.876 313.092 238.418 335.611 235.524 345.995C241.956 340.654 254.627 329.973 257.715 326.413C263.504 319.737 262.539 311.282 253.856 312.172Z" fill="black"/>
<path d="M226.193 304.972C221.301 312.935 231.902 324.9 236.795 332.863C236.795 327.849 236.795 317.359 236.795 312.935C236.794 305.857 229.726 299.222 226.193 304.972Z" fill="black"/>
<path d="M236.795 350.231C230.141 340.92 215.926 324.781 212.297 334.712C207.76 347.127 235.887 350.231 236.795 350.231Z" fill="black"/>
<path d="M236.795 362.939L235.524 329.051" stroke="black" stroke-width="2.11801" stroke-linecap="round"/>
<path d="M226.554 390.959C228.846 385.474 232.256 371.398 232.968 364.634H242.589C243.017 372.97 247.4 384.926 249.538 390.959C255.952 405.219 250.429 414.36 246.331 416.737H230.83C220.675 413.446 223.347 398.638 226.554 390.959Z" stroke="black" stroke-width="2.11801"/>
<path d="M283.391 281.607C284.055 278.843 285.185 272.346 284.388 268.476" stroke="black" stroke-width="2.11801" stroke-linecap="round"/>
<path d="M329.14 281.607C330.765 280.603 335.234 278.595 334.015 274.83" stroke="black" stroke-width="2.11801" stroke-linecap="round"/>
<path d="M330.411 285.42C331.399 285.043 333.376 283.725 334.223 282.878" stroke="black" stroke-width="2.11801" stroke-linecap="round"/>
<path d="M324.904 309.353C326.74 305.188 327.869 301.729 328.928 292.833" stroke="black" stroke-width="2.11801" stroke-linecap="round"/>
<path d="M378.523 326.51C365.669 302.028 329.849 306.878 319.821 312.151C345.258 314.762 351.731 332.452 352.757 340.704C356.586 373.439 366.66 392.626 371.218 398.127C374.979 400.878 391.23 400.682 392.072 394.001C395.149 369.588 385.925 340.608 378.523 326.51Z" fill="black"/>
<path d="M404.154 434.982C404.772 430.962 392.064 432.504 384.768 433.933C384.138 434.056 383.562 434.461 383.46 435.096C383.246 436.434 383.914 437.703 384.563 438.508C384.866 438.885 385.329 439.073 385.812 439.098C392.109 439.425 403.533 439.026 404.154 434.982Z" fill="black"/>
<path d="M190.883 149.169C188.223 151.059 184.641 156.309 192.819 158.997C199.056 161.046 204.346 160.01 206.173 159.967" stroke="black" stroke-width="2.11801" stroke-linecap="round"/>
<path d="M215.138 161.768C205.88 162.679 194.818 152.083 189.688 145.781C189.345 145.36 189.498 144.738 189.977 144.482C196.378 141.055 201.267 134.295 203.346 130.553C203.603 130.089 204.217 129.955 204.637 130.279C219.644 141.873 222.019 151.543 221.509 155.187C221.502 155.231 221.493 155.27 221.48 155.311C220.905 157.07 218.9 160.706 215.275 161.742C215.23 161.754 215.184 161.763 215.138 161.768Z" stroke="black" stroke-width="2.11801" stroke-linecap="round"/>
<ellipse cx="196.348" cy="137.217" rx="11.2255" ry="2.11801" transform="rotate(-45.978 196.348 137.217)" fill="black"/>
<path d="M444.389 243.06C440.93 254.921 434.561 279.744 436.764 284.149" stroke="black" stroke-width="2.11801" stroke-linecap="round"/>
<path d="M438.154 246.303L443.74 242.812C444.096 242.589 444.562 242.661 444.834 242.981L448.753 247.582C449.027 247.903 449.497 247.974 449.853 247.747L463.21 239.247C465.328 237.553 465.293 236.016 464.481 235.011C463.076 233.273 459.057 232.636 456.392 232.663C456.035 232.667 455.729 232.91 455.626 233.253L454.645 236.521C454.57 236.771 454.381 236.975 454.137 237.066C447.043 239.702 442.525 238.015 440.759 235.731C440.616 235.547 440.578 235.306 440.631 235.08L441.174 232.773C441.291 232.275 440.945 231.788 440.435 231.758C436.799 231.546 431.016 232.027 431.016 235.435C431.016 238.912 434.825 243.765 437.113 246.178C437.385 246.464 437.819 246.512 438.154 246.303Z" fill="black"/>
<path d="M421.274 273.135C422.968 255.005 428.404 240.024 431.016 235.011C431.864 233.105 433.897 231.792 436.1 231.622C438.853 231.411 459.899 231.442 465.116 234.164C469.988 236.706 469.141 236.706 467.87 250.896C466.853 262.249 462.787 277.371 460.88 283.514C459.61 286.902 451.942 289.783 444.148 286.902C434.405 283.302 437.37 285.208 428.475 283.514C421.358 282.158 420.977 276.312 421.274 273.135Z" stroke="black" stroke-width="2.11801"/>
<path d="M468.718 242.424C467.306 240.942 464.1 239.459 462.575 245.389C460.669 252.802 456.399 269.359 456.009 271.441C455.373 274.83 455.162 283.725 458.551 278.43C461.262 274.194 464.411 256.403 465.329 247.931" stroke="black" stroke-width="2.11801" stroke-linecap="round"/>
<ellipse cx="445.872" cy="248.355" rx="1.05937" ry="1.69441" transform="rotate(13.2587 445.872 248.355)" fill="black"/>
<ellipse cx="443.479" cy="257.025" rx="1.05937" ry="1.69441" transform="rotate(13.2587 443.479 257.025)" fill="black"/>
<ellipse cx="441.361" cy="267.191" rx="1.05937" ry="1.69441" transform="rotate(13.2587 441.361 267.191)" fill="black"/>
<ellipse cx="439.667" cy="277.781" rx="1.05937" ry="1.69441" transform="rotate(13.2587 439.667 277.781)" fill="black"/>
<path d="M336.977 262.122L339.518 250.896" stroke="black" stroke-width="2.11801" stroke-linecap="round"/>
<path d="M340.365 265.934L356.886 256.827" stroke="black" stroke-width="2.11801" stroke-linecap="round"/>
<path d="M341.848 271.017H352.65" stroke="black" stroke-width="2.11801" stroke-linecap="round"/>
<path d="M338.459 199.64C343.895 198.228 356.208 197.734 361.969 207.053C369.17 218.702 369.594 222.091 378.701 219.973" stroke="black" stroke-width="2.11801" stroke-linecap="round"/>
<path d="M385.152 193.792C391.576 194.568 406.205 193.58 413.321 183.413C420.438 173.247 426.171 172.541 428.147 173.459" stroke="black" stroke-width="2.11801" stroke-linecap="round"/>
<path d="M276.613 162.152C277.178 157.916 276.105 148.427 267.294 144.36" stroke="black" stroke-width="2.11801" stroke-linecap="round"/>
<path d="M195.07 223.786C195.988 218.702 201.339 208.875 215.403 210.23C229.466 211.586 237.359 205.994 239.548 203.029" stroke="black" stroke-width="2.11801" stroke-linecap="round"/>
<path d="M248.215 161.665C245.98 162.452 242.233 165.134 245.127 169.565C248 173.964 250.588 170.256 251.546 167.803C251.561 167.767 251.57 167.73 251.573 167.691C251.706 166.224 251.377 163.581 249.009 164.298C246.609 165.025 247.48 166.901 248.215 167.749" stroke="black" stroke-width="2.11801" stroke-linecap="round"/>
<path d="M349.385 150.478C347.15 151.265 343.404 153.946 346.298 158.378C349.17 162.777 351.759 159.069 352.717 156.616C352.731 156.58 352.74 156.543 352.744 156.503C352.877 155.037 352.547 152.394 350.18 153.111C347.78 153.837 348.65 155.714 349.385 156.562" stroke="black" stroke-width="2.11801" stroke-linecap="round"/>
</svg>
